<?xml version="1.0" standalone="no"?>
<!DOCTYPE svg PUBLIC "-//W3C//DTD SVG 20010904//EN"
 "http://www.w3.org/TR/2001/REC-SVG-20010904/DTD/svg10.dtd">
<svg version="1.0" xmlns="http://www.w3.org/2000/svg"
 width="400.000000pt" height="400.000000pt" viewBox="0 0 400.000000 400.000000"
 preserveAspectRatio="xMidYMid meet">

<g transform="translate(0.000000,400.000000) scale(0.100000,-0.100000)"
fill="#000000" stroke="none">
<path d="M1827 3450 c-606 -110 -1080 -571 -1209 -1175 -20 -94 -23 -138 -23
-305 1 -162 4 -211 22 -292 69 -305 199 -545 412 -758 214 -214 454 -345 752
-412 91 -20 130 -23 309 -23 173 1 220 4 302 22 458 103 835 396 1038 808 239
484 197 1060 -112 1513 -73 107 -283 314 -388 383 -172 113 -326 180 -520 226
-149 36 -425 42 -583 13z m555 -268 c143 -37 268 -91 379 -164 599 -394 748
-1180 335 -1767 -71 -100 -219 -242 -329 -315 -386 -256 -900 -271 -1302 -37
-267 155 -475 415 -563 706 -47 154 -55 208 -56 365 0 159 10 225 55 375 108
351 371 638 714 780 169 70 312 96 505 90 120 -3 165 -9 262 -33z"/>
<path d="M1380 1975 l0 -715 135 0 135 0 0 585 0 585 242 0 c274 0 293 -4 362
-80 58 -64 66 -111 66 -377 0 -128 3 -233 6 -233 3 0 24 13 47 29 198 136 269
414 162 639 -44 94 -128 182 -210 223 -116 57 -135 59 -557 59 l-388 0 0 -715z"/>
<path d="M1850 1775 l0 -515 470 0 470 0 0 125 0 125 -335 0 -335 0 0 390 0
390 -135 0 -135 0 0 -515z"/>
</g>
</svg>
